<?xml version="1.0" encoding="UTF-8"?><svg id="Capa_2" xmlns="http://www.w3.org/2000/svg" viewBox="0 0 2532.95 724.93"><defs><style>.cls-1{fill:#295386;}</style></defs><g id="Layer_2"><path class="cls-1" d="M534.85,17.95l15.8,193.18h-15.8c-15.95-48.14-36.56-84.4-61.83-108.77-36.42-35.21-83.2-52.81-140.37-52.81-77.94,0-137.21,30.85-177.83,92.53-34.01,52.06-51,114.05-51,185.96,0,58.38,11.28,111.64,33.85,159.78,22.57,48.15,52.13,83.43,88.69,105.84,36.56,22.43,74.09,33.63,112.61,33.63,22.57,0,44.37-2.85,65.45-8.58,21.06-5.71,41.37-14.13,60.93-25.28v-176.93c0-30.69-2.34-50.78-7-60.25-4.67-9.48-11.89-16.7-21.66-21.66-9.79-4.96-27.01-7.45-51.68-7.45v-17.15h236.96v17.15h-11.28c-23.47,0-39.58,7.83-48.29,23.47-6.02,11.14-9.03,33.1-9.03,65.9v187.31c-34.61,18.66-68.76,32.36-102.46,41.07-33.71,8.72-71.17,13.09-112.39,13.09-118.25,0-208.07-37.91-269.45-113.74C23.02,487.36,0,421.77,0,347.44c0-53.85,12.93-105.46,38.82-154.81,30.69-58.68,72.81-103.81,126.38-135.4,44.82-26.18,97.79-39.27,158.87-39.27,22.26,0,42.5,1.81,60.71,5.42,18.19,3.61,44.01,11.59,77.41,23.92,16.84,6.32,28.12,9.48,33.85,9.48s10.61-2.62,14.67-7.9c4.06-5.26,6.54-15.57,7.45-30.92h16.7Z"/><path class="cls-1" d="M1073.9,322.19c46.58,9.7,81.43,25.23,104.56,46.58,32.04,29.76,48.07,66.16,48.07,109.18,0,32.68-10.58,63.97-31.72,93.89-21.15,29.93-50.14,51.76-86.97,65.51-36.84,13.75-93.08,20.62-168.74,20.62h-317.15v-17.95h25.27c28.08,0,48.23-8.73,60.46-26.2,7.6-11.33,11.4-35.42,11.4-72.3V116.45c0-40.76-4.79-66.48-14.37-77.15-12.88-14.24-32.05-21.35-57.48-21.35h-25.27V0h290.39c54.18,0,97.62,3.88,130.33,11.65,49.56,11.65,87.38,32.27,113.48,61.87,26.1,29.6,39.15,63.64,39.15,102.14,0,33-10.24,62.52-30.72,88.55-20.49,26.05-50.71,45.37-90.69,57.98Zm-259.67-26.2c12.22,2.26,26.18,3.97,41.87,5.09,15.69,1.14,32.95,1.7,51.79,1.7,48.23,0,84.49-5.09,108.77-15.28,24.28-10.19,42.87-25.79,55.75-46.82,12.88-21.03,19.33-43.99,19.33-68.9,0-38.5-16.03-71.33-48.07-98.5-32.05-27.17-78.79-40.76-140.24-40.76-33.04,0-62.77,3.56-89.2,10.67v252.8Zm0,314.43c38.32,8.73,76.15,13.1,113.48,13.1,59.79,0,105.38-13.18,136.77-39.55,31.38-26.36,47.08-58.95,47.08-97.77,0-25.55-7.11-50.14-21.31-73.75-14.21-23.61-37.34-42.21-69.38-55.8-32.05-13.59-71.69-20.38-118.93-20.38-20.49,0-37.99,.32-52.53,.97-14.54,.65-26.26,1.78-35.18,3.4v269.78Z"/><g><path class="cls-1" d="M1404.58,438.02c25.19,0,47.2,4.18,66.04,12.54,18.83,8.36,33.44,20.45,43.8,36.28,10.37,15.83,15.55,34.9,15.55,57.18,0,19.18-3.3,35.72-9.87,49.65-6.57,13.94-15.71,25.41-27.42,34.44-11.7,9.03-25.3,15.72-40.8,20.07-15.5,4.35-32.05,6.52-49.65,6.52h-94.63c-.67-1.11-1.06-3.12-1.18-6.02-.11-2.89,.28-4.9,1.18-6.02,1.55-.22,3.89-.5,7.02-.83,3.12-.34,6.13-.89,9.03-1.67,2.89-.78,4.56-1.84,5.01-3.18,1.34-3.34,2.12-7.57,2.34-12.7,.22-5.12,.34-11.14,.34-18.06v-120.04c0-7.13-.12-13.21-.34-18.23-.22-5.01-1-9.2-2.34-12.54-.45-1.56-2.12-2.68-5.01-3.35-2.9-.67-5.91-1.11-9.03-1.34-3.13-.22-5.47-.34-7.02-.34-.9-1.11-1.29-3.23-1.18-6.36,.11-3.12,.5-5.12,1.18-6.02,7.36,.45,15.27,.73,23.74,.84,8.47,.11,16.15,.17,23.07,.17s14.6-.11,23.08-.34c8.47-.22,17.49-.44,27.08-.67Zm-27.42,37.12v139.6c0,3.23,.17,6.63,.5,10.2,.34,3.57,.95,6.36,1.84,8.36,1.11,2.23,3.79,4.07,8.03,5.52,4.23,1.46,8.47,2.18,12.7,2.18,26.53,0,46.09-7.64,58.69-22.91,12.59-15.27,18.89-38.73,18.89-70.39,0-21.4-3.57-39.23-10.7-53.5-7.14-14.26-16.88-24.97-29.26-32.1-12.37-7.13-26.7-10.7-42.97-10.7-3.57,0-6.97,.17-10.2,.5-3.23,.34-5.3,1.39-6.19,3.18-.67,1.78-1.06,4.01-1.17,6.68-.12,2.68-.17,5.8-.17,9.36v4.01Z"/><path class="cls-1" d="M1596.51,574.79c0,11.37,1.67,20.68,5.02,27.92,3.35,7.25,7.47,12.77,12.37,16.55,4.9,3.79,9.97,6.41,15.21,7.86,5.24,1.46,9.64,2.17,13.21,2.17,9.58,0,17.16-1.83,22.73-5.52,5.57-3.67,10.14-7.3,13.71-10.87,1.11,.23,2.06,1.01,2.84,2.34,.78,1.34,1.17,2.56,1.17,3.67,0,2.9-.34,4.91-1,6.02-2.01,2.9-5.68,6.91-11.04,12.04-5.35,5.13-12.09,9.7-20.23,13.71-8.14,4.01-17.45,6.02-27.92,6.02-12.04,0-23.3-2.73-33.77-8.2-10.48-5.46-18.9-13.26-25.25-23.41-6.36-10.14-9.53-22.34-9.53-36.61,0-10.25,2.01-20.23,6.02-29.93,4.01-9.69,9.41-18.39,16.22-26.08,6.8-7.69,14.54-13.76,23.24-18.23,8.69-4.46,17.72-6.69,27.09-6.69,10.7,0,19.73,1.67,27.09,5.02s13.21,7.58,17.55,12.71c4.35,5.13,7.52,10.53,9.53,16.22,2,5.68,3.01,10.86,3.01,15.55,0,3.57-.84,6.69-2.51,9.36-1.67,2.67-3.74,4.13-6.19,4.35-7.36,.67-15.6,1.29-24.74,1.84-9.14,.56-18.39,1-27.75,1.34-9.36,.34-18.06,.62-26.09,.83Zm.34-13.04c.67,0,2.84-.05,6.52-.17,3.67-.11,7.91-.34,12.7-.67,4.79-.34,9.31-.67,13.54-1.01,4.23-.34,7.36-.61,9.36-.83,2-.22,3.23-.95,3.67-2.18,.45-1.22,.67-2.28,.67-3.18,0-5.12-.67-10.14-2.01-15.04-1.34-4.91-3.46-9.03-6.36-12.37-2.9-3.35-6.8-5.02-11.7-5.02s-9.03,1.56-12.37,4.68c-3.35,3.13-6.08,6.91-8.2,11.37-2.12,4.46-3.63,8.98-4.51,13.54-.89,4.58-1.34,8.2-1.34,10.87Z"/><path class="cls-1" d="M1722.58,471.47c0-2.9-.12-5.52-.34-7.86-.22-2.34-.9-4.96-2.01-7.86-.45-1.34-2-2.45-4.68-3.34-2.67-.89-5.47-1.5-8.36-1.84-2.9-.34-5.02-.5-6.36-.5-.67,0-1.06-1.61-1.17-4.84-.11-3.23,.28-5.19,1.17-5.86,12.26-1.11,23.01-2.67,32.27-4.68,9.25-2.01,16.6-3.85,22.07-5.52,5.46-1.67,8.3-2.51,8.53-2.51,1.11,.22,2.17,1,3.18,2.34,1,1.34,1.61,2.46,1.84,3.35-1.12,7.58-2.01,13.94-2.68,19.06-.67,5.13-1,9.92-1,14.38v140.44c0,6.91,.11,12.93,.34,18.06,.22,5.13,1,9.36,2.34,12.7,.67,1.34,2.39,2.46,5.19,3.35,2.79,.9,5.8,1.5,9.03,1.84,3.23,.34,5.52,.62,6.85,.83,.89,1.12,1.28,3.13,1.17,6.02-.11,2.9-.5,4.9-1.17,6.02-6.24-.67-13.54-1.22-21.9-1.67-8.36-.44-16-.67-22.91-.67s-14.49,.22-22.73,.67c-8.25,.45-15.61,1.01-22.07,1.67-.67-1.12-1.06-3.12-1.17-6.02-.11-2.89,.28-4.9,1.17-6.02,1.56-.22,3.9-.5,7.03-.83,3.12-.34,6.12-.95,9.03-1.84,2.89-.89,4.56-2.01,5.01-3.35,1.11-2.89,1.78-6.57,2.01-11.03,.22-4.46,.34-9.58,.34-15.38v-139.1Z"/><path class="cls-1" d="M1869.03,552.72v53.5c0,6.02,.11,11.82,.34,17.39,.22,5.58,1,10.04,2.34,13.38,.67,1.34,2.18,2.46,4.51,3.35,2.34,.9,4.9,1.5,7.69,1.84,2.79,.34,4.85,.62,6.19,.83,.89,1.12,1.28,3.13,1.17,6.02-.11,2.9-.5,4.9-1.17,6.02-6.24-.67-13.16-1.22-20.73-1.67-7.58-.44-14.83-.67-21.74-.67s-14.43,.22-22.57,.67c-8.14,.45-15.44,1.01-21.91,1.67-.67-1.12-1.06-3.12-1.17-6.02-.11-2.89,.28-4.9,1.17-6.02,1.56-.22,3.85-.5,6.86-.83,3.01-.34,5.96-.95,8.86-1.84,2.89-.89,4.56-2.01,5.01-3.35,1.34-3.34,2.12-7.57,2.34-12.7,.22-5.12,.34-11.14,.34-18.06v-37.45c0-1.11-.06-3.51-.17-7.19-.12-3.67-.39-7.47-.84-11.37-.45-3.9-1.11-6.63-2-8.2-.9-1.78-2.84-3.12-5.85-4.01-3.01-.89-5.97-1.55-8.86-2.01-2.9-.44-4.8-.67-5.69-.67-.22-.22-.45-1.17-.67-2.84-.22-1.67-.22-3.29,0-4.85,.22-1.55,.55-2.34,1-2.34,8.25-.67,16.44-2.01,24.58-4.02,8.13-2,15.66-4.23,22.57-6.68,6.91-2.45,12.37-4.68,16.38-6.69,1.11,.22,2.34,1.12,3.68,2.67,1.34,1.57,2.01,2.57,2.01,3.01-.45,1.34-1.06,4.18-1.84,8.53-.78,4.35-1.29,7.75-1.5,10.2-.22,3.57-.34,7.58-.34,12.04v8.36Zm-48.15-100.31c0-6.47,2.34-11.98,7.02-16.55,4.68-4.57,10.25-6.86,16.72-6.86s12.03,2.29,16.71,6.86c4.68,4.57,7.03,10.09,7.03,16.55s-2.34,12.04-7.03,16.71c-4.68,4.68-10.25,7.03-16.71,7.03s-12.04-2.34-16.72-7.03c-4.68-4.68-7.02-10.25-7.02-16.71Z"/><path class="cls-1" d="M1938.24,511.26c6.91,0,14.49-.28,22.74-.83,8.25-.55,14.38-1.06,18.39-1.5,.88,.89,1.34,2.9,1.34,6.02s-.45,5.24-1.34,6.35c-1.34,0-3.57,.34-6.69,1.01-3.12,.67-6.02,1.62-8.69,2.84-2.67,1.22-4.01,2.84-4.01,4.84,0,.45,.05,1.18,.16,2.18,.11,1,.28,1.95,.5,2.84,2.9,5.58,6.24,12.04,10.03,19.39,3.79,7.36,7.52,14.43,11.21,21.24,3.67,6.8,7.86,14.66,12.54,23.57,3.35-7.36,6.3-13.88,8.86-19.56,2.56-5.68,5.35-11.87,8.36-18.56,3.01-6.68,5.85-13.04,8.53-19.06,.89-1.78,1.67-3.79,2.34-6.02,.67-2.23,1.01-4.23,1.01-6.02,0-2.67-1.73-4.62-5.19-5.85-3.46-1.22-7.08-2-10.86-2.34-3.79-.34-6.14-.5-7.03-.5-.89-.89-1.34-2.89-1.34-6.02s.34-5.24,1.01-6.35c4.9,.67,10.3,1.22,16.22,1.67,5.9,.45,11.98,.67,18.22,.67,6.91,0,13.66-.34,20.23-1,6.57-.67,11.09-1.11,13.54-1.34,.67,.89,1.05,2.9,1.17,6.02,.11,3.12-.29,5.24-1.17,6.35-1.34,0-3.85,.22-7.52,.67-3.68,.45-7.36,1.45-11.04,3.01-3.67,1.56-6.3,3.9-7.86,7.02l-50.16,107c-6.47,12.26-11.37,18.39-14.71,18.39-.45,0-1.12-.34-2.01-1.01-.89-.67-1.56-1.22-2-1.67-9.59-19.61-19.01-39.06-28.26-58.35-9.25-19.28-19.34-40.18-30.26-62.7-1.34-3.35-3.51-5.91-6.52-7.69-3.01-1.78-5.85-3.01-8.53-3.67-2.67-.67-4.46-1.01-5.35-1.01-.89-1.34-1.28-3.51-1.17-6.52,.11-3.01,.5-4.96,1.17-5.85,2.89,.22,7.02,.55,12.37,1,5.35,.45,10.92,.78,16.71,1,5.8,.22,10.81,.34,15.05,.34Z"/><path class="cls-1" d="M2113.79,574.79c0,11.37,1.67,20.68,5.02,27.92,3.35,7.25,7.47,12.77,12.37,16.55,4.9,3.79,9.97,6.41,15.21,7.86,5.24,1.46,9.64,2.17,13.21,2.17,9.58,0,17.16-1.83,22.73-5.52,5.57-3.67,10.14-7.3,13.71-10.87,1.11,.23,2.06,1.01,2.84,2.34,.78,1.34,1.17,2.56,1.17,3.67,0,2.9-.34,4.91-1,6.02-2.01,2.9-5.68,6.91-11.04,12.04-5.35,5.13-12.09,9.7-20.23,13.71-8.14,4.01-17.45,6.02-27.92,6.02-12.04,0-23.3-2.73-33.77-8.2-10.48-5.46-18.9-13.26-25.25-23.41-6.36-10.14-9.53-22.34-9.53-36.61,0-10.25,2.01-20.23,6.02-29.93,4.01-9.69,9.41-18.39,16.22-26.08,6.8-7.69,14.54-13.76,23.24-18.23,8.69-4.46,17.72-6.69,27.09-6.69,10.7,0,19.73,1.67,27.09,5.02,7.36,3.35,13.21,7.58,17.55,12.71,4.35,5.13,7.52,10.53,9.53,16.22,2,5.68,3.01,10.86,3.01,15.55,0,3.57-.84,6.69-2.51,9.36-1.67,2.67-3.74,4.13-6.19,4.35-7.36,.67-15.6,1.29-24.74,1.84-9.14,.56-18.39,1-27.75,1.34-9.36,.34-18.06,.62-26.09,.83Zm.34-13.04c.67,0,2.84-.05,6.52-.17,3.67-.11,7.91-.34,12.7-.67,4.79-.34,9.31-.67,13.54-1.01,4.23-.34,7.36-.61,9.36-.83,2-.22,3.23-.95,3.67-2.18,.45-1.22,.67-2.28,.67-3.18,0-5.12-.67-10.14-2.01-15.04-1.34-4.91-3.46-9.03-6.36-12.37s-6.8-5.02-11.7-5.02-9.03,1.56-12.37,4.68c-3.35,3.13-6.08,6.91-8.2,11.37-2.12,4.46-3.63,8.98-4.51,13.54-.89,4.58-1.34,8.2-1.34,10.87Z"/><path class="cls-1" d="M2329.8,507.57c4.23,0,8.13,.45,11.7,1.34,3.56,.89,6.46,2.34,8.69,4.35,.67,.89,1.45,2.9,2.34,6.02,.88,3.12,1.34,6.47,1.34,10.03s-.84,7.36-2.51,11.37c-1.67,4.01-3.95,7.41-6.85,10.2-2.9,2.79-6.24,4.18-10.03,4.18-2.9,0-5.47-.95-7.69-2.84-2.23-1.89-4.35-3.62-6.36-5.18-1.78-1.78-3.51-3.4-5.18-4.85-1.67-1.45-3.96-2.17-6.86-2.17-4.46,0-8.31,1.73-11.53,5.18-3.23,3.46-5.74,7.25-7.52,11.37-1.78,4.13-2.67,7.42-2.67,9.87v39.79c0,6.02,.11,11.82,.34,17.39,.22,5.58,1,10.04,2.34,13.38,.67,1.34,2.67,2.46,6.02,3.35,3.35,.9,6.86,1.5,10.53,1.84,3.68,.34,6.19,.62,7.52,.83,.89,1.12,1.28,3.13,1.17,6.02-.11,2.9-.5,4.9-1.17,6.02-6.24-.67-14.1-1.22-23.57-1.67-9.48-.44-17.67-.67-24.58-.67s-14.43,.22-22.57,.67c-8.14,.45-15.44,1.01-21.91,1.67-.67-1.12-1.06-3.12-1.17-6.02-.11-2.89,.28-4.9,1.17-6.02,1.56-.22,3.85-.5,6.86-.83,3.01-.34,5.96-.95,8.86-1.84,2.89-.89,4.56-2.01,5.01-3.35,1.34-3.34,2.12-7.57,2.34-12.7,.22-5.12,.34-11.14,.34-18.06v-37.45c0-1.11-.06-3.51-.17-7.19-.12-3.67-.39-7.47-.84-11.37-.45-3.9-1.11-6.63-2-8.2-.9-1.78-2.84-3.12-5.85-4.01-3.01-.89-5.97-1.55-8.86-2.01-2.9-.44-4.8-.67-5.69-.67-.22-.22-.45-1.17-.67-2.84-.22-1.67-.22-3.29,0-4.85,.22-1.55,.55-2.34,1-2.34,8.25-.67,16.44-2.01,24.58-4.02,8.13-2,15.66-4.23,22.57-6.68,6.91-2.45,12.37-4.68,16.38-6.69,1.11,.22,2.34,1.12,3.68,2.67,1.34,1.57,2.01,2.57,2.01,3.01-.23,.9-.62,3.13-1.18,6.69-.56,3.57-1.06,7.24-1.5,11.03-.45,3.79-.67,6.47-.67,8.03,0,.9,.27,1.34,.83,1.34s.95-.11,1.17-.34c2.68-4.68,5.86-9.58,9.53-14.71,3.68-5.12,8.08-9.41,13.21-12.87,5.12-3.45,11.14-5.19,18.06-5.19Z"/><path class="cls-1" d="M2401.68,511.26c6.91,0,14.49-.28,22.74-.83,8.25-.55,14.38-1.06,18.39-1.5,.88,.89,1.34,2.9,1.34,6.02s-.45,5.24-1.34,6.35c-1.34,0-3.57,.34-6.69,1.01-3.12,.67-6.02,1.62-8.69,2.84-2.67,1.22-4.01,2.84-4.01,4.84,0,.45,.05,1.18,.16,2.18s.28,1.95,.5,2.84c2.9,5.58,6.24,12.04,10.03,19.39,3.79,7.36,7.52,14.43,11.21,21.24,3.67,6.8,7.86,14.66,12.54,23.57,3.35-7.36,6.3-13.88,8.86-19.56,2.56-5.68,5.35-11.87,8.36-18.56,3.01-6.68,5.85-13.04,8.53-19.06,.89-1.78,1.67-3.79,2.34-6.02,.67-2.23,1.01-4.23,1.01-6.02,0-2.67-1.73-4.62-5.19-5.85-3.46-1.22-7.08-2-10.86-2.34-3.79-.34-6.14-.5-7.03-.5-.89-.89-1.34-2.89-1.34-6.02s.34-5.24,1.01-6.35c4.9,.67,10.3,1.22,16.22,1.67,5.9,.45,11.98,.67,18.22,.67,6.91,0,13.66-.34,20.23-1,6.57-.67,11.09-1.11,13.54-1.34,.67,.89,1.05,2.9,1.17,6.02,.11,3.12-.29,5.24-1.17,6.35-1.34,0-3.85,.22-7.52,.67-3.68,.45-7.36,1.45-11.04,3.01-3.67,1.56-6.3,3.9-7.86,7.02-4.68,10.03-9.03,19.23-13.04,27.58-4.01,8.36-8.36,17.56-13.04,27.59-4.68,10.03-9.48,20.12-14.38,30.26-4.91,10.15-9.36,19.56-13.38,28.26-4.91,10.48-9.2,19.67-12.88,27.59-3.67,7.91-8.97,16.1-15.88,24.57-8.48,10.7-16.22,17.89-23.24,21.57-7.03,3.67-13.1,5.52-18.23,5.52-6.91,0-12.26-1.84-16.05-5.52-3.79-3.68-5.68-7.64-5.68-11.87,0-3.79,.67-6.91,2-9.36,1.34-2.46,3.12-4.46,5.35-6.02,8.69,0,16.22-.62,22.57-1.84,6.36-1.22,12.04-3.63,17.06-7.19,5.02-3.57,9.75-9.03,14.21-16.38,3.12-4.91,5.24-8.75,6.36-11.53,1.11-2.79,2.79-6.63,5.02-11.53-2.67-5.35-6.24-12.54-10.7-21.57-4.46-9.03-9.2-18.61-14.21-28.75-5.02-10.14-9.76-19.73-14.21-28.76-4.46-9.03-9.48-19.34-15.05-30.93-1.34-3.35-3.51-5.91-6.52-7.69-3.01-1.78-5.85-3.01-8.53-3.67-2.67-.67-4.46-1.01-5.35-1.01-.89-1.34-1.28-3.51-1.17-6.52,.11-3.01,.5-4.96,1.17-5.85,2.89,.22,7.02,.55,12.37,1,5.35,.45,10.92,.78,16.71,1,5.8,.22,10.81,.34,15.05,.34Z"/></g></g></svg>