<?xml version="1.0" encoding="iso-8859-1"?>
<!-- Generator: Adobe Illustrator 18.0.0, SVG Export Plug-In . SVG Version: 6.00 Build 0)  -->
<!DOCTYPE svg PUBLIC "-//W3C//DTD SVG 1.1//EN" "http://www.w3.org/Graphics/SVG/1.1/DTD/svg11.dtd">
<svg version="1.1" xmlns="http://www.w3.org/2000/svg" xmlns:xlink="http://www.w3.org/1999/xlink" x="0px" y="0px"
	 viewBox="0 0 62.595 62.588" style="enable-background:new 0 0 62.595 62.588;" xml:space="preserve">
<g id="_x23_Instagram">
	<g id="Instagram_Logo_2_">
		<path style="fill:#000;" d="M0,43.946c0-8.371,0-16.741,0-25.112c0.1-0.716,0.25-1.43,0.292-2.149
			C0.769,8.583,5.913,2.456,13.763,0.756C15.43,0.395,17.142,0.246,18.834,0c8.371,0,16.741,0,25.112,0
			c0.664,0.098,1.325,0.249,1.992,0.286c9.304,0.51,16.24,7.222,16.472,16.503c0.244,9.768,0.253,19.552-0.01,29.319
			c-0.246,9.128-7.159,16.046-16.285,16.291c-9.819,0.263-19.655,0.24-29.476,0.003C8.529,62.207,2.363,56.75,0.726,48.887
			C0.387,47.26,0.237,45.594,0,43.946z M31.409,56.846c0-0.006,0-0.012,0-0.017c4.601,0,9.206,0.113,13.802-0.035
			c3.747-0.121,7.075-1.41,9.369-4.599c1.547-2.15,2.218-4.638,2.237-7.233c0.065-8.941,0.17-17.885-0.004-26.823
			c-0.149-7.658-4.434-12.002-12.05-12.172C35.88,5.77,26.985,5.766,18.101,5.963C10.41,6.135,6.134,10.39,5.966,18.039
			C5.77,26.975,5.777,35.922,5.972,44.858c0.162,7.439,4.539,11.709,11.948,11.96C22.412,56.97,26.913,56.846,31.409,56.846z"/>
		<path style="fill:#000;" d="M31.25,47.478c-8.997-0.087-16.076-7.299-15.967-16.267c0.11-8.999,7.331-16.052,16.308-15.927
			c8.932,0.124,15.941,7.266,15.887,16.19C47.424,40.463,40.222,47.565,31.25,47.478z M41.788,31.413
			c0.007-5.845-4.578-10.438-10.414-10.434c-5.838,0.005-10.407,4.599-10.394,10.451c0.013,5.759,4.579,10.336,10.333,10.358
			C37.162,41.81,41.781,37.236,41.788,31.413z"/>
		<path style="fill:#000;" d="M48.11,10.897c2.155-0.01,3.76,1.575,3.767,3.719c0.006,2.099-1.666,3.808-3.731,3.815
			c-2.027,0.007-3.808-1.753-3.825-3.778C44.304,12.599,46.011,10.908,48.11,10.897z"/>
	</g>
</g>
<g id="Layer_1">
</g>
</svg>
