<?xml version="1.0" encoding="UTF-8"?><svg id="Capa_2" xmlns="http://www.w3.org/2000/svg" xmlns:xlink="http://www.w3.org/1999/xlink" viewBox="0 0 219.32 219.32"><defs><style>.cls-1{fill:url(#linear-gradient);}.cls-2{fill:#69c9d0;}.cls-2,.cls-3,.cls-4{fill-rule:evenodd;}.cls-3{fill:#fff;}.cls-4{fill:#ee1d52;}</style><linearGradient id="linear-gradient" x1="32.12" y1="32.12" x2="187.2" y2="187.2" gradientUnits="userSpaceOnUse"><stop offset="0" stop-color="#22004a"/><stop offset=".96" stop-color="#010003"/><stop offset="1" stop-color="#000"/></linearGradient></defs><g id="ELEMENTS"><circle class="cls-1" cx="109.66" cy="109.66" r="109.66"/><g><path class="cls-4" d="m139.32,89.54c8.97,6.41,19.97,10.18,31.84,10.18v-22.84c-2.25,0-4.49-.23-6.69-.7v17.98c-11.87,0-22.86-3.77-31.84-10.18v46.6c0,23.31-18.91,42.21-42.23,42.21-8.7,0-16.79-2.63-23.51-7.14,7.67,7.84,18.36,12.7,30.2,12.7,23.32,0,42.23-18.9,42.23-42.21v-46.6h0Zm8.25-23.04c-4.59-5.01-7.6-11.48-8.25-18.63v-2.94h-6.34c1.59,9.09,7.03,16.86,14.59,21.57h0Zm-65.93,81.26c-2.56-3.36-3.95-7.47-3.94-11.69,0-10.66,8.65-19.31,19.32-19.31,1.99,0,3.96.3,5.86.9v-23.35c-2.21-.3-4.45-.43-6.68-.38v18.17c-1.9-.6-3.87-.91-5.86-.9-10.67,0-19.32,8.64-19.32,19.31,0,7.54,4.32,14.07,10.63,17.25Z"/><path class="cls-3" d="m132.63,83.99c8.98,6.41,19.97,10.18,31.84,10.18v-17.98c-6.63-1.41-12.49-4.87-16.9-9.69-7.55-4.71-12.99-12.48-14.59-21.57h-16.64v91.21c-.04,10.63-8.67,19.24-19.32,19.24-6.27,0-11.85-2.99-15.38-7.62-6.3-3.18-10.63-9.71-10.63-17.25,0-10.66,8.65-19.31,19.32-19.31,2.04,0,4.01.32,5.86.9v-18.17c-22.91.47-41.34,19.19-41.34,42.2,0,11.49,4.59,21.9,12.04,29.51,6.72,4.51,14.81,7.14,23.51,7.14,23.32,0,42.23-18.9,42.23-42.21v-46.6Z"/><path class="cls-2" d="m164.47,76.19v-4.86c-5.98,0-11.83-1.66-16.9-4.83,4.49,4.91,10.4,8.3,16.9,9.69Zm-31.49-31.26c-.15-.87-.27-1.74-.35-2.62v-2.94h-22.98v91.21c-.04,10.63-8.67,19.24-19.32,19.24-3.13,0-6.08-.74-8.69-2.06,3.53,4.63,9.1,7.62,15.38,7.62,10.65,0,19.28-8.61,19.32-19.24V44.93h16.64Zm-36.79,49.01v-5.17c-1.92-.26-3.86-.39-5.79-.39-23.33,0-42.23,18.9-42.23,42.21,0,14.62,7.43,27.49,18.72,35.07-7.45-7.61-12.04-18.02-12.04-29.51,0-23.01,18.43-41.73,41.34-42.2h0Z"/></g></g></svg>