<?xml version="1.0" encoding="UTF-8"?><svg id="Capa_2" xmlns="http://www.w3.org/2000/svg" xmlns:xlink="http://www.w3.org/1999/xlink" viewBox="0 0 219.32 219.32"><defs><style>.cls-1{fill:#fff;}.cls-2{fill:url(#Degradado_sin_nombre_4);}</style><linearGradient id="Degradado_sin_nombre_4" x1="187.2" y1="32.12" x2="32.12" y2="187.2" gradientUnits="userSpaceOnUse"><stop offset="0" stop-color="#3cf"/><stop offset="1" stop-color="#337fff"/></linearGradient></defs><g id="ELEMENTS"><circle class="cls-2" cx="109.66" cy="109.66" r="109.66"/><path class="cls-1" d="m170.25,72.09c-3.8,1.72-8,2.76-12.1,3.45,1.95-.33,4.8-3.85,5.95-5.27,1.75-2.17,3.2-4.65,4.01-7.32.1-.21.18-.47-.03-.63-.26-.1-.43-.05-.64.05-4.57,2.45-9.31,4.23-14.34,5.49-.42.1-.73,0-.99-.26-.42-.47-.81-.91-1.25-1.28-2.12-1.8-4.39-3.21-6.95-4.26-3.36-1.37-7.03-1.95-10.65-1.72-3.52.23-6.98,1.22-10.11,2.86-3.13,1.64-5.93,3.91-8.15,6.66-2.3,2.84-4,6.2-4.87,9.75-.84,3.43-.77,6.83-.26,10.3.08.58.03.65-.49.58-19.7-2.93-36.02-9.98-49.28-25.08-.58-.66-.89-.66-1.36.05-5.8,8.69-2.99,22.66,4.26,29.52.97.92,1.96,1.83,3.03,2.66-.39.08-5.21-.44-9.51-2.66-.58-.36-.86-.16-.92.5-.05.94.03,1.8.16,2.82,1.11,8.81,7.22,16.96,15.57,20.14.99.42,2.09.78,3.16.97-1.9.42-3.86.72-9.33.29-.68-.13-.94.21-.68.86,4.1,11.18,12.96,14.51,19.59,16.41.89.16,1.78.16,2.67.36-.05.08-.11.08-.16.16-2.2,3.35-9.83,5.85-13.38,7.09-6.46,2.26-13.5,3.27-20.32,2.6-1.09-.16-1.32-.15-1.62,0-.3.19-.04.45.31.73,1.39.91,2.8,1.73,4.23,2.51,4.34,2.3,8.86,4.13,13.59,5.43,24.41,6.74,51.92,1.79,70.25-16.43,14.4-14.3,19.44-34.03,19.44-53.78,0-.77.91-1.2,1.46-1.61,3.75-2.81,6.77-6.18,9.56-9.94.63-.84.63-1.6.63-1.9v-.1c0-.32,0-.22-.49,0Z"/></g></svg>