<?xml version="1.0" encoding="UTF-8"?><svg id="Capa_2" xmlns="http://www.w3.org/2000/svg" xmlns:xlink="http://www.w3.org/1999/xlink" viewBox="0 0 219.32 219.32"><defs><style>.cls-1,.cls-2{fill:#fff;}.cls-2{fill-rule:evenodd;}.cls-3{fill:url(#Degradado_sin_nombre_8);}</style><linearGradient id="Degradado_sin_nombre_8" x1="187.2" y1="32.12" x2="32.12" y2="187.2" gradientTransform="translate(50.31 -33.62) rotate(22.5)" gradientUnits="userSpaceOnUse"><stop offset="0" stop-color="#60fc7c"/><stop offset="1" stop-color="#4ab161"/></linearGradient></defs><g id="ELEMENTS"><circle class="cls-3" cx="109.66" cy="109.66" r="109.66" transform="translate(-33.62 50.31) rotate(-22.5)"/><path class="cls-1" d="m50.41,171.72l9.14-34.11c-5.18-9.34-7.9-19.81-7.9-30.43,0-34.73,28.26-62.99,62.99-62.99s62.99,28.26,62.99,62.99-28.26,62.99-62.99,62.99c-10.43,0-20.72-2.63-29.94-7.63l-34.29,9.19Zm35.99-21.97l2.16,1.29c7.93,4.72,16.95,7.22,26.08,7.22,28.17,0,51.08-22.91,51.08-51.08s-22.92-51.08-51.08-51.08-51.08,22.91-51.08,51.08c0,9.3,2.58,18.46,7.47,26.48l1.32,2.17-5.1,19.05,19.15-5.13Z"/><path class="cls-2" d="m138.07,115.93c-2.59-1.55-5.97-3.28-9.02-2.03-2.34.96-3.84,4.63-5.36,6.5-.78.96-1.71,1.11-2.91.63-8.8-3.5-15.54-9.38-20.39-17.47-.82-1.26-.68-2.25.32-3.41,1.47-1.73,3.31-3.69,3.7-6.01.4-2.33-.69-5.05-1.66-7.12-1.23-2.65-2.6-6.42-5.25-7.92-2.44-1.38-5.65-.61-7.82,1.16-3.75,3.05-5.56,7.84-5.5,12.58.02,1.35.18,2.69.49,3.99.76,3.13,2.2,6.05,3.83,8.82,1.23,2.09,2.56,4.12,4,6.08,4.7,6.39,10.56,11.94,17.33,16.1,3.39,2.07,7.03,3.89,10.81,5.14,4.24,1.4,8.01,2.86,12.58,1.99,4.79-.91,9.51-3.87,11.41-8.49.56-1.37.84-2.89.53-4.33-.65-2.98-4.69-4.76-7.1-6.2Z"/></g></svg>